<svg width="18" height="18" viewBox="0 0 18 18" fill="none" xmlns="http://www.w3.org/2000/svg">
<g clip-path="url(#clip0_85_929)">
<path fill-rule="evenodd" clip-rule="evenodd" d="M13.0613 10.7865C12.8378 10.6748 11.742 10.1363 11.538 10.0613C11.334 9.987 11.1855 9.95025 11.0363 10.1737C10.8877 10.3958 10.461 10.8983 10.3312 11.0468C10.2007 11.196 10.071 11.214 9.84825 11.103C9.6255 10.9905 8.907 10.7558 8.05575 9.99675C7.3935 9.40575 6.94575 8.676 6.816 8.4525C6.68625 8.22975 6.80175 8.109 6.9135 7.998C7.014 7.89825 7.13625 7.73775 7.248 7.608C7.35975 7.4775 7.3965 7.3845 7.47075 7.23525C7.54575 7.08675 7.50825 6.957 7.452 6.84525C7.3965 6.7335 6.951 5.63625 6.765 5.19C6.58425 4.75575 6.4005 4.815 6.264 4.8075C6.1335 4.8015 5.985 4.8 5.8365 4.8C5.688 4.8 5.4465 4.8555 5.2425 5.079C5.03775 5.30175 4.4625 5.841 4.4625 6.93825C4.4625 8.03475 5.2605 9.0945 5.37225 9.24375C5.484 9.39225 6.9435 11.6438 9.17925 12.609C9.71175 12.8385 10.1265 12.9757 10.4497 13.0777C10.9837 13.248 11.4698 13.224 11.8538 13.1663C12.2812 13.1025 13.1723 12.627 13.3583 12.1065C13.5435 11.586 13.5435 11.1398 13.488 11.0468C13.4325 10.9538 13.284 10.8983 13.0605 10.7865H13.0613ZM8.99475 16.3387H8.99175C7.66382 16.339 6.36028 15.982 5.21775 15.3052L4.94775 15.1448L2.14125 15.8812L2.8905 13.1453L2.71425 12.8647C1.97185 11.683 1.57897 10.3153 1.581 8.91975C1.5825 4.83225 4.908 1.50675 8.99775 1.50675C10.9777 1.50675 12.8393 2.27925 14.2388 3.68025C14.929 4.36769 15.4762 5.18517 15.8485 6.08542C16.2208 6.98567 16.4109 7.95081 16.4078 8.925C16.4062 13.0125 13.0807 16.3387 8.99475 16.3387ZM15.3038 2.616C14.4774 1.78419 13.4942 1.12465 12.4111 0.675601C11.328 0.226548 10.1665 -0.0030877 8.994 2.15583e-07C4.0785 2.15583e-07 0.0765 4.00125 0.075 8.919C0.0727223 10.4841 0.483281 12.022 1.26525 13.3777L0 18L4.728 16.7595C6.03591 17.4721 7.50157 17.8455 8.991 17.8455H8.99475C13.9102 17.8455 17.9123 13.8443 17.9137 8.92575C17.9174 7.75371 17.6886 6.59258 17.2406 5.50953C16.7926 4.42648 16.1343 3.443 15.3038 2.616Z" fill="white"/>
</g>
<defs>
<clipPath id="clip0_85_929">
<rect width="18" height="18" fill="white"/>
</clipPath>
</defs>
</svg>
