<svg width="20" height="20" viewBox="0 0 20 20" fill="none" xmlns="http://www.w3.org/2000/svg">
<path d="M7.34168 1.66669L4.32501 4.69169" stroke="white" stroke-width="1.2" stroke-miterlimit="10" stroke-linecap="round" stroke-linejoin="round"/>
<path d="M12.6583 1.66669L15.675 4.69169" stroke="white" stroke-width="1.2" stroke-miterlimit="10" stroke-linecap="round" stroke-linejoin="round"/>
<path d="M1.66669 6.54167C1.66669 5 2.49169 4.875 3.51669 4.875H16.4834C17.5084 4.875 18.3334 5 18.3334 6.54167C18.3334 8.33333 17.5084 8.20833 16.4834 8.20833H3.51669C2.49169 8.20833 1.66669 8.33333 1.66669 6.54167Z" stroke="white" stroke-width="1.2"/>
<path d="M8.1333 11.6667V14.625" stroke="white" stroke-width="1.2" stroke-linecap="round"/>
<path d="M11.9667 11.6667V14.625" stroke="white" stroke-width="1.2" stroke-linecap="round"/>
<path d="M2.91669 8.33331L4.09169 15.5333C4.35835 17.15 5.00002 18.3333 7.38335 18.3333H12.4084C15 18.3333 15.3834 17.2 15.6834 15.6333L17.0834 8.33331" stroke="white" stroke-width="1.2" stroke-linecap="round"/>
</svg>
