<svg width="99" height="99" viewBox="0 0 99 99" fill="none" xmlns="http://www.w3.org/2000/svg">
<circle cx="49.5" cy="49.5" r="49.5" fill="#9747FF" fill-opacity="0.12"/>
<g filter="url(#filter0_f_85_1363)">
<circle cx="49.5" cy="49.5" r="36.4737" fill="#9747FF" fill-opacity="0.12"/>
</g>
<path d="M68.0358 49.1952L50.7858 31.9452C50.0958 31.2552 49.1375 30.8335 48.0833 30.8335H34.6667C32.5583 30.8335 30.8333 32.5585 30.8333 34.6668V48.0835C30.8333 49.1377 31.255 50.096 31.9642 50.8052L49.2142 68.0552C49.9042 68.7452 50.8625 69.1668 51.9167 69.1668C52.9708 69.1668 53.9292 68.7452 54.6192 68.036L68.0358 54.6193C68.745 53.9293 69.1667 52.971 69.1667 51.9168C69.1667 50.8627 68.7258 49.8852 68.0358 49.1952ZM37.5417 40.4168C35.9508 40.4168 34.6667 39.1327 34.6667 37.5418C34.6667 35.951 35.9508 34.6668 37.5417 34.6668C39.1325 34.6668 40.4167 35.951 40.4167 37.5418C40.4167 39.1327 39.1325 40.4168 37.5417 40.4168ZM60.1008 56.2677L51.9167 64.4518L43.7325 56.2677C43.0607 55.5975 42.6029 54.7429 42.4173 53.8123C42.2317 52.8817 42.3266 51.9169 42.69 51.0403C43.0534 50.1637 43.6689 49.4147 44.4584 48.8883C45.248 48.3619 46.1761 48.0818 47.125 48.0835C48.4475 48.0835 49.655 48.6202 50.5175 49.5018L51.9167 50.8818L53.3158 49.4827C54.2156 48.5829 55.4359 48.0774 56.7083 48.0774C57.9808 48.0774 59.2011 48.5829 60.1008 49.4827C61.0006 50.3824 61.5061 51.6027 61.5061 52.8752C61.5061 54.1476 61.0006 55.3679 60.1008 56.2677Z" fill="white"/>
<defs>
<filter id="filter0_f_85_1363" x="9.02631" y="9.02637" width="80.9474" height="80.9473" filterUnits="userSpaceOnUse" color-interpolation-filters="sRGB">
<feFlood flood-opacity="0" result="BackgroundImageFix"/>
<feBlend mode="normal" in="SourceGraphic" in2="BackgroundImageFix" result="shape"/>
<feGaussianBlur stdDeviation="2" result="effect1_foregroundBlur_85_1363"/>
</filter>
</defs>
</svg>
