<svg width="48" height="49" viewBox="0 0 48 49" fill="none" xmlns="http://www.w3.org/2000/svg">
<rect y="0.582031" width="48" height="48" rx="24" fill="#343538"/>
<path d="M31.3083 30.8569C31.3083 31.1569 31.2417 31.4652 31.1 31.7652C30.9583 32.0652 30.775 32.3485 30.5333 32.6152C30.125 33.0652 29.675 33.3902 29.1667 33.5985C28.6667 33.8069 28.125 33.9152 27.5417 33.9152C26.6917 33.9152 25.7833 33.7152 24.825 33.3069C23.8667 32.8985 22.9083 32.3485 21.9583 31.6569C21 30.9569 20.0917 30.1819 19.225 29.3235C18.3667 28.4569 17.5917 27.5485 16.9 26.5985C16.2167 25.6485 15.6667 24.6985 15.2667 23.7569C14.8667 22.8069 14.6667 21.8985 14.6667 21.0319C14.6667 20.4652 14.7667 19.9235 14.9667 19.4235C15.1667 18.9152 15.4833 18.4485 15.925 18.0319C16.4583 17.5069 17.0417 17.2485 17.6583 17.2485C17.8917 17.2485 18.125 17.2985 18.3333 17.3985C18.55 17.4985 18.7417 17.6485 18.8917 17.8652L20.825 20.5902C20.975 20.7985 21.0833 20.9902 21.1583 21.1735C21.2333 21.3485 21.275 21.5235 21.275 21.6819C21.275 21.8819 21.2167 22.0819 21.1 22.2735C20.9917 22.4652 20.8333 22.6652 20.6333 22.8652L20 23.5235C19.9083 23.6152 19.8667 23.7235 19.8667 23.8569C19.8667 23.9235 19.875 23.9819 19.8917 24.0485C19.9167 24.1152 19.9417 24.1652 19.9583 24.2152C20.1083 24.4902 20.3667 24.8485 20.7333 25.2819C21.1083 25.7152 21.5083 26.1569 21.9417 26.5985C22.3917 27.0402 22.825 27.4485 23.2667 27.8235C23.7 28.1902 24.0583 28.4402 24.3417 28.5902C24.3833 28.6069 24.4333 28.6319 24.4917 28.6569C24.5583 28.6819 24.625 28.6902 24.7 28.6902C24.8417 28.6902 24.95 28.6402 25.0417 28.5485L25.675 27.9235C25.8833 27.7152 26.0833 27.5569 26.275 27.4569C26.4667 27.3402 26.6583 27.2819 26.8667 27.2819C27.025 27.2819 27.1917 27.3152 27.375 27.3902C27.5583 27.4652 27.75 27.5735 27.9583 27.7152L30.7167 29.6735C30.9333 29.8235 31.0833 29.9985 31.175 30.2069C31.2583 30.4152 31.3083 30.6235 31.3083 30.8569Z" stroke="white" stroke-width="1.2" stroke-miterlimit="10"/>
<path d="M28.4167 23.0817C28.4167 22.5817 28.025 21.815 27.4417 21.19C26.9084 20.615 26.2 20.165 25.5 20.165" stroke="white" stroke-width="1.2" stroke-linecap="round" stroke-linejoin="round"/>
<path d="M31.3334 23.0819C31.3334 19.8569 28.725 17.2485 25.5 17.2485" stroke="white" stroke-width="1.2" stroke-linecap="round" stroke-linejoin="round"/>
</svg>
