<svg width="20" height="20" viewBox="0 0 20 20" fill="none" xmlns="http://www.w3.org/2000/svg">
<path d="M13.6923 6.45837H6.30768C6.13948 6.45837 5.99999 6.17504 5.99999 5.83337C5.99999 5.49171 6.13948 5.20837 6.30768 5.20837H13.6923C13.8605 5.20837 14 5.49171 14 5.83337C14 6.17504 13.8605 6.45837 13.6923 6.45837Z" fill="#494949"/>
<path d="M15.5385 10.25H4.46153C4.20922 10.25 3.99999 9.96667 3.99999 9.625C3.99999 9.28333 4.20922 9 4.46153 9H15.5385C15.7908 9 16 9.28333 16 9.625C16 9.96667 15.7908 10.25 15.5385 10.25Z" fill="#5C5C5C"/>
<path d="M17.625 14.7917H2.62499C2.28332 14.7917 1.99999 14.5084 1.99999 14.1667C1.99999 13.825 2.28332 13.5417 2.62499 13.5417H17.625C17.9667 13.5417 18.25 13.825 18.25 14.1667C18.25 14.5084 17.9667 14.7917 17.625 14.7917Z" fill="#ABABAB"/>
</svg>
