<svg width="48" height="48" viewBox="0 0 48 48" fill="none" xmlns="http://www.w3.org/2000/svg">
<rect width="48" height="48" rx="24" fill="#343538"/>
<g clip-path="url(#clip0_85_993)">
<path fill-rule="evenodd" clip-rule="evenodd" d="M20.5988 15.7995C21.4785 15.759 21.759 15.75 24 15.75C26.241 15.75 26.5215 15.7597 27.4005 15.7995C28.2795 15.8392 28.8795 15.9795 29.4045 16.1828C29.9542 16.3905 30.453 16.7152 30.8655 17.1352C31.2855 17.547 31.6095 18.045 31.8165 18.5955C32.0205 19.1205 32.16 19.7205 32.2005 20.598C32.241 21.4792 32.25 21.7597 32.25 24C32.25 26.241 32.2402 26.5215 32.2005 27.4012C32.1607 28.2787 32.0205 28.8787 31.8165 29.4037C31.6095 29.9543 31.285 30.4531 30.8655 30.8655C30.453 31.2855 29.9542 31.6095 29.4045 31.8165C28.8795 32.0205 28.2795 32.16 27.402 32.2005C26.5215 32.241 26.241 32.25 24 32.25C21.759 32.25 21.4785 32.2402 20.5988 32.2005C19.7213 32.1607 19.1213 32.0205 18.5963 31.8165C18.0457 31.6095 17.5469 31.2849 17.1345 30.8655C16.7148 30.4535 16.39 29.9549 16.1828 29.4045C15.9795 28.8795 15.84 28.2795 15.7995 27.402C15.759 26.5207 15.75 26.2402 15.75 24C15.75 21.759 15.7597 21.4785 15.7995 20.5995C15.8392 19.7205 15.9795 19.1205 16.1828 18.5955C16.3903 18.0451 16.7153 17.5465 17.1352 17.1345C17.547 16.7149 18.0454 16.3901 18.5955 16.1828C19.1205 15.9795 19.7205 15.84 20.598 15.7995H20.5988ZM27.3337 17.2845C26.4637 17.2448 26.2028 17.2365 24 17.2365C21.7972 17.2365 21.5362 17.2448 20.6662 17.2845C19.8615 17.3212 19.425 17.4555 19.134 17.5687C18.7492 17.7188 18.474 17.8965 18.1853 18.1853C17.9115 18.4515 17.7009 18.7757 17.5687 19.134C17.4555 19.425 17.3212 19.8615 17.2845 20.6662C17.2448 21.5362 17.2365 21.7972 17.2365 24C17.2365 26.2028 17.2448 26.4637 17.2845 27.3337C17.3212 28.1385 17.4555 28.575 17.5687 28.866C17.7007 29.2238 17.9115 29.5485 18.1853 29.8148C18.4515 30.0885 18.7763 30.2993 19.134 30.4313C19.425 30.5445 19.8615 30.6788 20.6662 30.7155C21.5362 30.7552 21.7965 30.7635 24 30.7635C26.2035 30.7635 26.4637 30.7552 27.3337 30.7155C28.1385 30.6788 28.575 30.5445 28.866 30.4313C29.2508 30.2813 29.526 30.1035 29.8148 29.8148C30.0885 29.5485 30.2993 29.2238 30.4313 28.866C30.5445 28.575 30.6788 28.1385 30.7155 27.3337C30.7552 26.4637 30.7635 26.2028 30.7635 24C30.7635 21.7972 30.7552 21.5362 30.7155 20.6662C30.6788 19.8615 30.5445 19.425 30.4313 19.134C30.2813 18.7492 30.1035 18.474 29.8148 18.1853C29.5484 17.9116 29.2243 17.7009 28.866 17.5687C28.575 17.4555 28.1385 17.3212 27.3337 17.2845ZM22.9462 26.5433C23.5347 26.7882 24.19 26.8213 24.8002 26.6368C25.4104 26.4523 25.9375 26.0617 26.2917 25.5317C26.6459 25.0017 26.805 24.3652 26.742 23.7308C26.679 23.0965 26.3978 22.5037 25.9462 22.0538C25.6584 21.7661 25.3104 21.5459 24.9272 21.4089C24.5441 21.2719 24.1353 21.2215 23.7304 21.2615C23.3254 21.3014 22.9344 21.4306 22.5854 21.6398C22.2363 21.8491 21.9381 22.1331 21.712 22.4714C21.4859 22.8097 21.3376 23.194 21.2779 23.5965C21.2181 23.999 21.2484 24.4097 21.3664 24.7991C21.4844 25.1886 21.6874 25.547 21.9605 25.8485C22.2337 26.1501 22.5704 26.3874 22.9462 26.5433ZM21.0015 21.0015C21.3953 20.6077 21.8627 20.2954 22.3772 20.0823C22.8917 19.8692 23.4431 19.7595 24 19.7595C24.5569 19.7595 25.1083 19.8692 25.6228 20.0823C26.1373 20.2954 26.6047 20.6077 26.9985 21.0015C27.3923 21.3953 27.7046 21.8627 27.9177 22.3772C28.1308 22.8917 28.2405 23.4431 28.2405 24C28.2405 24.5569 28.1308 25.1083 27.9177 25.6228C27.7046 26.1373 27.3923 26.6047 26.9985 26.9985C26.2032 27.7938 25.1247 28.2405 24 28.2405C22.8753 28.2405 21.7968 27.7938 21.0015 26.9985C20.2062 26.2032 19.7595 25.1247 19.7595 24C19.7595 22.8753 20.2062 21.7968 21.0015 21.0015ZM29.181 20.391C29.2786 20.299 29.3567 20.1883 29.4107 20.0655C29.4648 19.9427 29.4936 19.8103 29.4956 19.6762C29.4975 19.5421 29.4725 19.4089 29.4221 19.2846C29.3717 19.1603 29.2968 19.0474 29.202 18.9525C29.1071 18.8577 28.9942 18.7828 28.8699 18.7324C28.7456 18.682 28.6124 18.657 28.4783 18.6589C28.3442 18.6609 28.2118 18.6897 28.089 18.7438C27.9662 18.7978 27.8555 18.8759 27.7635 18.9735C27.5845 19.1633 27.4865 19.4153 27.4903 19.6762C27.4941 19.9371 27.5994 20.1862 27.7839 20.3706C27.9683 20.5551 28.2174 20.6604 28.4783 20.6642C28.7392 20.668 28.9912 20.57 29.181 20.391Z" fill="white"/>
</g>
<defs>
<clipPath id="clip0_85_993">
<rect width="18" height="18" fill="white" transform="translate(15 15)"/>
</clipPath>
</defs>
</svg>
