<svg width="99" height="99" viewBox="0 0 99 99" fill="none" xmlns="http://www.w3.org/2000/svg">
<circle cx="49.5" cy="49.5" r="49.5" fill="#9747FF" fill-opacity="0.12"/>
<g filter="url(#filter0_f_85_1366)">
<circle cx="49.5" cy="49.5" r="36.4737" fill="#9747FF" fill-opacity="0.12"/>
</g>
<path d="M54.1592 53.2777L56.8425 48.6393C57.015 48.3518 56.9383 47.9877 56.6892 47.7768L53.8525 45.5535C53.91 45.1318 53.9483 44.691 53.9483 44.2502C53.9483 43.8093 53.91 43.3685 53.8525 42.9277L56.6892 40.7043C56.9383 40.4935 57.015 40.1293 56.8425 39.8418L54.1592 35.2035C53.9867 34.916 53.6417 34.801 53.335 34.916L50 36.2577C49.31 35.721 48.5625 35.2802 47.7383 34.9352L47.24 31.3893C47.2078 31.2343 47.1239 31.0948 47.002 30.9938C46.8801 30.8928 46.7274 30.8363 46.5692 30.8335H41.2025C40.8767 30.8335 40.5892 31.0827 40.5317 31.4085L40.0333 34.9543C39.2283 35.2993 38.4617 35.7402 37.7717 36.2768L34.4367 34.9352C34.13 34.8202 33.785 34.9352 33.6125 35.2227L30.9292 39.861C30.7567 40.1485 30.8333 40.5127 31.0825 40.7235L33.9192 42.9468C33.8617 43.3685 33.8233 43.8093 33.8233 44.2502C33.8233 44.691 33.8617 45.1318 33.9192 45.5727L31.0825 47.796C30.8333 48.0068 30.7567 48.371 30.9292 48.6585L33.6125 53.2968C33.785 53.5843 34.13 53.6993 34.4367 53.5843L37.7717 52.2427C38.4617 52.7793 39.2092 53.2202 40.0333 53.5652L40.5317 57.111C40.5892 57.4177 40.8767 57.6668 41.2025 57.6668H46.5692C46.895 57.6668 47.1825 57.4177 47.24 57.0918L47.7383 53.546C48.5433 53.201 49.31 52.7602 50 52.2235L53.335 53.5652C53.6417 53.6802 53.9867 53.5652 54.1592 53.2777ZM43.8858 48.0835C41.7775 48.0835 40.0525 46.3585 40.0525 44.2502C40.0525 42.1418 41.7775 40.4168 43.8858 40.4168C45.9942 40.4168 47.7192 42.1418 47.7192 44.2502C47.7192 46.3585 45.9942 48.0835 43.8858 48.0835ZM69.0133 62.7843L67.1733 61.366C67.2117 61.0977 67.25 60.8102 67.25 60.5227C67.25 60.2352 67.2308 59.9477 67.1733 59.6793L68.9942 58.261C69.1475 58.1268 69.205 57.8968 69.09 57.7052L67.365 54.7343C67.2692 54.5427 67.0392 54.4852 66.8283 54.5427L64.7008 55.4052C64.26 55.0602 63.7808 54.7727 63.2442 54.5618L62.9183 52.3002C62.9107 52.1977 62.8654 52.1018 62.791 52.0309C62.7166 51.9601 62.6185 51.9194 62.5158 51.9168H59.085C58.8742 51.9168 58.6825 52.0702 58.6633 52.281L58.3375 54.5427C57.82 54.7727 57.3217 55.041 56.8808 55.386L54.7533 54.5235C54.6557 54.4868 54.5481 54.4859 54.4499 54.521C54.3516 54.556 54.269 54.6249 54.2167 54.7152L52.4917 57.686C52.3958 57.8777 52.415 58.1077 52.5875 58.2418L54.4083 59.6602C54.3293 60.2196 54.3293 60.7874 54.4083 61.3468L52.5875 62.7652C52.4342 62.8993 52.3767 63.1293 52.4917 63.321L54.2167 66.2918C54.3125 66.4835 54.5425 66.541 54.7533 66.4835L56.8808 65.621C57.3217 65.966 57.8008 66.2535 58.3375 66.4643L58.6633 68.726C58.7017 68.9368 58.8742 69.0902 59.085 69.0902H62.5158C62.7267 69.0902 62.9183 68.9368 62.9375 68.726L63.2633 66.4643C63.7808 66.2343 64.2792 65.966 64.7008 65.621L66.8475 66.4835C67.0392 66.5602 67.2692 66.4835 67.3842 66.2918L69.1092 63.321C69.2242 63.1485 69.1667 62.9185 69.0133 62.7843ZM60.7908 63.091C60.1043 63.0907 59.446 62.8178 58.9608 62.3322C58.4755 61.8466 58.2031 61.1881 58.2033 60.5016C58.2036 59.8151 58.4765 59.1568 58.9621 58.6715C59.4478 58.1863 60.1062 57.9138 60.7927 57.9141C61.4792 57.9143 62.1375 58.1873 62.6228 58.6729C63.108 59.1585 63.3805 59.817 63.3802 60.5035C63.38 61.19 63.107 61.8483 62.6214 62.3335C62.1358 62.8188 61.4773 63.0912 60.7908 63.091Z" fill="white"/>
<defs>
<filter id="filter0_f_85_1366" x="9.02631" y="9.02637" width="80.9474" height="80.9473" filterUnits="userSpaceOnUse" color-interpolation-filters="sRGB">
<feFlood flood-opacity="0" result="BackgroundImageFix"/>
<feBlend mode="normal" in="SourceGraphic" in2="BackgroundImageFix" result="shape"/>
<feGaussianBlur stdDeviation="2" result="effect1_foregroundBlur_85_1366"/>
</filter>
</defs>
</svg>
