<svg width="99" height="99" viewBox="0 0 99 99" fill="none" xmlns="http://www.w3.org/2000/svg">
<circle cx="49.5" cy="49.5" r="49.5" fill="#9747FF" fill-opacity="0.12"/>
<g filter="url(#filter0_f_85_1359)">
<circle cx="49.5" cy="49.5" r="36.4737" fill="#9747FF" fill-opacity="0.12"/>
</g>
<g clip-path="url(#clip0_85_1359)">
<path d="M44.25 67.8889C46.0142 67.8889 47.4444 66.4587 47.4444 64.6944C47.4444 62.9302 46.0142 61.5 44.25 61.5C42.4858 61.5 41.0556 62.9302 41.0556 64.6944C41.0556 66.4587 42.4858 67.8889 44.25 67.8889Z" fill="white"/>
<path d="M60.8611 67.8889C62.6254 67.8889 64.0556 66.4587 64.0556 64.6944C64.0556 62.9302 62.6254 61.5 60.8611 61.5C59.0969 61.5 57.6667 62.9302 57.6667 64.6944C57.6667 66.4587 59.0969 67.8889 60.8611 67.8889Z" fill="white"/>
<path d="M69.2944 35.165C69.1754 35.0104 69.0225 34.8851 68.8476 34.7987C68.6726 34.7123 68.4801 34.6671 68.285 34.6667H38.7683L38.1933 32.8395C38.1302 32.6433 38.0205 32.4653 37.8736 32.3206C37.7268 32.176 37.5471 32.0691 37.35 32.0089L32.1111 30.3989C31.95 30.3494 31.7808 30.3321 31.613 30.348C31.4452 30.3639 31.2822 30.4127 31.1333 30.4916C30.8326 30.651 30.6075 30.9233 30.5075 31.2486C30.4075 31.5739 30.4409 31.9257 30.6002 32.2264C30.7596 32.5271 31.0319 32.7523 31.3572 32.8522L35.9444 34.2578L41.7967 52.7472L39.7139 54.4595L39.5478 54.6256C39.0327 55.222 38.7409 55.9788 38.7222 56.7667C38.7036 57.5545 38.9593 58.3243 39.4456 58.9445C39.7938 59.368 40.2364 59.7041 40.7378 59.926C41.2393 60.1479 41.7857 60.2493 42.3333 60.2222H63.6594C63.9983 60.2222 64.3233 60.0876 64.563 59.848C64.8026 59.6083 64.9372 59.2833 64.9372 58.9445C64.9372 58.6056 64.8026 58.2806 64.563 58.0409C64.3233 57.8013 63.9983 57.6667 63.6594 57.6667H42.1289C41.9818 57.6616 41.8384 57.6188 41.7127 57.5422C41.5869 57.4656 41.4831 57.3578 41.4112 57.2294C41.3392 57.1009 41.3016 56.9561 41.302 56.8088C41.3024 56.6616 41.3407 56.517 41.4133 56.3889L44.4928 53.8333H64.2089C64.5008 53.8418 64.7868 53.7501 65.0193 53.5734C65.2518 53.3967 65.4167 53.1457 65.4867 52.8622L69.5756 36.2511C69.6144 36.0606 69.6093 35.8638 69.5606 35.6756C69.5119 35.4873 69.4208 35.3127 69.2944 35.165Z" fill="white"/>
</g>
<defs>
<filter id="filter0_f_85_1359" x="9.02631" y="9.02637" width="80.9474" height="80.9473" filterUnits="userSpaceOnUse" color-interpolation-filters="sRGB">
<feFlood flood-opacity="0" result="BackgroundImageFix"/>
<feBlend mode="normal" in="SourceGraphic" in2="BackgroundImageFix" result="shape"/>
<feGaussianBlur stdDeviation="2" result="effect1_foregroundBlur_85_1359"/>
</filter>
<clipPath id="clip0_85_1359">
<rect width="46" height="46" fill="white" transform="translate(27 27)"/>
</clipPath>
</defs>
</svg>
