<svg width="48" height="48" viewBox="0 0 48 48" fill="none" xmlns="http://www.w3.org/2000/svg">
<rect width="48" height="48" rx="24" fill="#343538"/>
<g clip-path="url(#clip0_85_1010)">
<path fill-rule="evenodd" clip-rule="evenodd" d="M28.0613 25.7865C27.8378 25.6748 26.742 25.1363 26.538 25.0613C26.334 24.987 26.1855 24.9503 26.0363 25.1738C25.8877 25.3958 25.461 25.8983 25.3312 26.0468C25.2007 26.196 25.071 26.214 24.8482 26.103C24.6255 25.9905 23.907 25.7558 23.0557 24.9968C22.3935 24.4058 21.9458 23.676 21.816 23.4525C21.6863 23.2298 21.8018 23.109 21.9135 22.998C22.014 22.8983 22.1362 22.7378 22.248 22.608C22.3597 22.4775 22.3965 22.3845 22.4708 22.2353C22.5458 22.0868 22.5082 21.957 22.452 21.8453C22.3965 21.7335 21.951 20.6363 21.765 20.19C21.5843 19.7558 21.4005 19.815 21.264 19.8075C21.1335 19.8015 20.985 19.8 20.8365 19.8C20.688 19.8 20.4465 19.8555 20.2425 20.079C20.0377 20.3018 19.4625 20.841 19.4625 21.9383C19.4625 23.0348 20.2605 24.0945 20.3723 24.2438C20.484 24.3923 21.9435 26.6438 24.1793 27.609C24.7118 27.8385 25.1265 27.9758 25.4497 28.0778C25.9837 28.248 26.4698 28.224 26.8538 28.1663C27.2812 28.1025 28.1723 27.627 28.3583 27.1065C28.5435 26.586 28.5435 26.1398 28.488 26.0468C28.4325 25.9538 28.284 25.8983 28.0605 25.7865H28.0613ZM23.9948 31.3388H23.9918C22.6638 31.339 21.3603 30.9821 20.2177 30.3053L19.9478 30.1448L17.1413 30.8813L17.8905 28.1453L17.7143 27.8648C16.9719 26.683 16.579 25.3154 16.581 23.9198C16.5825 19.8323 19.908 16.5068 23.9977 16.5068C25.9777 16.5068 27.8393 17.2793 29.2388 18.6803C29.929 19.3677 30.4762 20.1852 30.8485 21.0855C31.2208 21.9857 31.4109 22.9508 31.4078 23.925C31.4062 28.0125 28.0807 31.3388 23.9948 31.3388ZM30.3038 17.616C29.4774 16.7842 28.4942 16.1247 27.4111 15.6756C26.328 15.2266 25.1665 14.9969 23.994 15C19.0785 15 15.0765 19.0013 15.075 23.919C15.0727 25.4841 15.4833 27.0221 16.2652 28.3778L15 33L19.728 31.7595C21.0359 32.4721 22.5016 32.8455 23.991 32.8455H23.9948C28.9102 32.8455 32.9123 28.8443 32.9137 23.9258C32.9174 22.7537 32.6886 21.5926 32.2406 20.5096C31.7926 19.4265 31.1343 18.443 30.3038 17.616Z" fill="white"/>
</g>
<defs>
<clipPath id="clip0_85_1010">
<rect width="18" height="18" fill="white" transform="translate(15 15)"/>
</clipPath>
</defs>
</svg>
